<svg xmlns="http://www.w3.org/2000/svg"><symbol id="shopping-cart" viewBox="0 0 26.8 23.6"><g fill="#030104"><path d="M22.8 4.5a1.1 1.1 0 0 0-.8-.3H8.2L8 3a1 1 0 0 0-1-.8H4.8a.9.9 0 0 0-1 1 1 1 0 0 0 1 1h1.4L8 15.4h.1c.1.1.1.2.2.2h.1l.2.2H20a1 1 0 0 0 1-1 .9.9 0 0 0-1-1H9.9l-.2-1H21a1 1 0 0 0 1-.9l1-7a.8.8 0 0 0-.2-.4zm-1.9 1.7l-.3 2H17v-2zm-4.9 0v2h-3v-2zm0 3v2h-3v-2zm-4-3v2H8.9l-.4-2zm-3 3h3v2H9.4zm8 2v-2h3.4l-.2 2z"/><circle cx="10.5" cy="18.7" r="1.5"/><circle cx="19.5" cy="18.7" r="1.5"/></g></symbol></svg>