<svg xmlns="http://www.w3.org/2000/svg"><symbol id="shopping-cart" viewBox="0 0 19.3 19.3"><path fill="#030104" d="M19 3a1.2 1.2 0 0 0-.8-.4H4.4l-.2-1.1a1 1 0 0 0-.9-.9H1a1 1 0 0 0-1 1 .9.9 0 0 0 1 1h1.4l1.9 11.2v.2h.1c0 .1 0 .1.1.2h11.7a.9.9 0 0 0 1-1 1 1 0 0 0-1-1H6.1l-.2-1h11.3a.9.9 0 0 0 1-.8l1-7A.8.8 0 0 0 19 3zm-1.9 1.6l-.3 2h-3.6v-2zm-4.9 0v2H9.3v-2zm0 3v2H9.3v-2zm-3.9-3v2h-3c-.1 0-.2 0-.2.1l-.3-2.1zm-3 3h3v2H5.6zm7.9 2v-2h3.5l-.3 2z"/><circle cx="6.8" cy="17.1" r="1.5" fill="#030104"/><circle cx="15.8" cy="17.1" r="1.5" fill="#030104"/></symbol><symbol id="add" viewBox="0 0 19.3 19.3"><rect width="16.1" height="4.28" x="1.6" y="7.5" fill="#030104" rx="2.1" ry="2.1"/><rect width="16.1" height="4.28" x="1.6" y="7.5" fill="#030104" rx="2.1" ry="2.1" transform="rotate(90 9.6 9.6)"/></symbol><symbol id="location" viewBox="0 0 19.3 19.3"><path d="M9.6 2.6a5.2 5.2 0 0 0-5.2 5.2 4.6 4.6 0 0 0 1.1 3l4.1 6.3 4.2-6.3a5.2 5.2 0 0 0-4.2-8.2zm0 6a1.9 1.9 0 0 1-1.9-1.9 2 2 0 0 1 1.9-1.9 1.9 1.9 0 0 1 1.9 1.9 1.8 1.8 0 0 1-1.9 1.9z"/></symbol></svg>