<svg id="Layer_1" data-name="Layer 1" xmlns="http://www.w3.org/2000/svg" width="64" height="64" viewBox="0 0 64 64"><title>logo-64</title><path d="M56,37.3l-2.1.4L53,38c-.1,0-.1.1-.2.2a4.9,4.9,0,0,1,4.5,1.1,26.4,26.4,0,0,0-5.5.6,4.6,4.6,0,0,1,1.3,1.8l.6,2L52,43l-1.7-.5c-.2-.1-.3-.1-.4.1a39,39,0,0,1-3.3,3.8,55.7,55.7,0,0,1-6.9,5.8c-2,1.3-4,2.5-6.1,3.6l-1.3.7a.4.4,0,0,1-.5,0c-2.2-1.1-4.3-2.3-6.4-3.6a52.3,52.3,0,0,1-8.8-7.4,33.6,33.6,0,0,1-2.4-2.9c-.2-.2-.3-.2-.5-.1l-3.1,1.1c0,.1-.1.1-.2.1h0l.6-2a5.7,5.7,0,0,1,1.2-1.8,25.1,25.1,0,0,0-5.5-.6,3.9,3.9,0,0,1,2.1-1.1,6.5,6.5,0,0,1,2.4,0h.1l-.3-.3-2.1-.4L8,37.3a4.3,4.3,0,0,1,2.2-1.2A28,28,0,0,1,7.9,22.4c.2.2.3.4.5.5A31.9,31.9,0,0,0,11,25.5a.8.8,0,0,1,.2.5,14.3,14.3,0,0,0,1,6.1,13.6,13.6,0,0,0,9.7,8.3,8.7,8.7,0,0,0,3.6.1h1.2c.1-.1.2,0,.3,0l3.6,4.7A10,10,0,0,0,32,46.6l.4-.3,2.4-2.8,2.4-3.2a9.2,9.2,0,0,0,2.9.3,12.7,12.7,0,0,0,5.7-1.5,17,17,0,0,0,3-2.3,13.4,13.4,0,0,0,3.6-6.2,17.5,17.5,0,0,0,.5-4.6.9.9,0,0,1,.3-.6A19.2,19.2,0,0,0,56,22.5a.1.1,0,0,0,.1-.1,28.1,28.1,0,0,1-2.2,13.7A4.5,4.5,0,0,1,56,37.3Z" fill="#faaf41"/><path d="M32,30.4l1.4-1.5a16.9,16.9,0,0,1,3.2-2.7l5.9-3.6,1.2-.5a48.4,48.4,0,0,0,6.6-2.8A16.9,16.9,0,0,0,53.9,17,40,40,0,0,0,57,14.3l1.8-1.9a29.1,29.1,0,0,0,2.6-3.3h0v.2a40.5,40.5,0,0,1-3.5,8.3,24.3,24.3,0,0,1-3.5,4.9,20.8,20.8,0,0,1-7.5,5.6,49.6,49.6,0,0,0-8.8,4.7,29.5,29.5,0,0,0-4.7,3.9l-1.2,1.5-.2.3-.6-.9a17.9,17.9,0,0,0-2.8-2.7,45.2,45.2,0,0,0-10.3-6.3,17.3,17.3,0,0,1-3.6-1.8,19.1,19.1,0,0,1-3.2-2.4,23.5,23.5,0,0,1-4.9-6,35.7,35.7,0,0,1-4-9.2h0l.6.8a27.4,27.4,0,0,0,3.9,4.5,28.7,28.7,0,0,0,8.4,5.8l5.3,2,1.6.9,5.2,3.2a18.3,18.3,0,0,1,3.6,3.2Z" fill="#faaf41"/><path d="M52.8,16.6l-.7.6a14,14,0,0,1-3,1.5c-1,.4-2.1.7-3.1,1.2l-4.9,2.3c-.1,0-.2.1-.4,0a15.7,15.7,0,0,0-5.8-2.5,20,20,0,0,0-3.5-.2,15.1,15.1,0,0,0-8.1,2.7c-.1.1-.2,0-.3,0-1.7-.8-3.4-1.7-5.2-2.4a18.4,18.4,0,0,0-2.5-.9,21.6,21.6,0,0,1-3.4-1.7c-.1-.1-.3-.2-.4-.4l-.2-.2a32.5,32.5,0,0,1,41.5,0Z" fill="#faaf41"/><path d="M39.4,22.8a60.6,60.6,0,0,0-7.4,6,53.9,53.9,0,0,0-7.4-6,13.3,13.3,0,0,1,5.7-2.2A12.4,12.4,0,0,1,39.4,22.8Z" fill="#faaf41"/><path d="M34.2,36.9l1.3-1.3A16.6,16.6,0,0,0,39.2,37a7.9,7.9,0,0,0,3.4.3,5.3,5.3,0,0,0,4.2-2.7A9,9,0,0,0,48,31a20.9,20.9,0,0,0,.1-2.5.3.3,0,0,1,.1-.2L50,27.2h.1v.7a24.2,24.2,0,0,1-.6,4.6,12.3,12.3,0,0,1-2.1,4.1,6.5,6.5,0,0,1-4.1,2.1,14,14,0,0,1-6.7-.8Z" fill="#faaf41"/><path d="M29.8,36.8a17.2,17.2,0,0,1-5.4,1.8,10.2,10.2,0,0,1-4.6-.2,6.8,6.8,0,0,1-4.5-3.8A12.4,12.4,0,0,1,14.2,31l-.3-3.5v-.3l1.2.7a1.4,1.4,0,0,1,.8.5c.1.2,0,.6,0,.9a11.8,11.8,0,0,0,1.2,4.9A5.4,5.4,0,0,0,21,37.3a8.6,8.6,0,0,0,3.2-.1,23.5,23.5,0,0,0,4.2-1.5c.1,0,.1-.1.2,0Z" fill="#faaf41"/><path d="M27.4,34.7a15.3,15.3,0,0,1-2.7,1.1,10.9,10.9,0,0,1-2.5.4,4.4,4.4,0,0,1-4.6-3.3,16.7,16.7,0,0,1-.5-3.9h.2l2.1,1c.1.1.2.1.2.3a3.4,3.4,0,0,0,.3,2,2.9,2.9,0,0,0,2.9,2,8,8,0,0,0,3-.6h.4Z" fill="#faaf41"/><path d="M36.6,34.7l1.4-.9h.3l2.1.6a3.9,3.9,0,0,0,2.8-.6,3,3,0,0,0,1.2-2.2,5.3,5.3,0,0,0,.1-1.3v-.2l2.2-1a.1.1,0,0,1,.1-.1v1.1a8.7,8.7,0,0,1-.6,3.2,4.3,4.3,0,0,1-3.2,2.8,7.6,7.6,0,0,1-3-.1,17.3,17.3,0,0,1-3.2-1.1Z" fill="#faaf41"/><path d="M27.9,39.2l1.9,1.2a13.7,13.7,0,0,1,2,1.3h.4L36,39.3h.2c-.1.2-.1.4-.2.5l-1.8,2.9-2.1,2.8H32a38.4,38.4,0,0,1-4.2-6.3Z" fill="#faaf41"/></svg>