<svg id="Layer_1" data-name="Layer 1" xmlns="http://www.w3.org/2000/svg" width="16" height="16" viewBox="0 0 16 16"><title>logo-16</title><path d="M13.9,9.1h-.5c-.1,0-.2,0-.2.1h-.1a1.4,1.4,0,0,1,1.1.3H12.9l.3.5a4.3,4.3,0,0,1,.1.5l-.4-.2h-.5l-.8.9a12.2,12.2,0,0,1-1.7,1.5l-1.5.9H7.9l-1.5-.9a9.6,9.6,0,0,1-2.2-1.8l-.6-.7H3.5l-.8.3h0a4.3,4.3,0,0,1,.1-.5l.3-.5H1.8l.5-.3h.5l-.5-.2H2.1l.5-.3a7.8,7.8,0,0,1-.5-3.4v.2l.6.6h.1a2.6,2.6,0,0,0,.2,1.5A3.3,3.3,0,0,0,4.2,9.3a3.1,3.1,0,0,0,1.3.6H6.8A4.8,4.8,0,0,0,7.7,11l.3.4h.1l.6-.7.6-.8H10a2.5,2.5,0,0,0,1.4-.4,1.8,1.8,0,0,0,.7-.5A2.7,2.7,0,0,0,13,7.5a4.9,4.9,0,0,0,.1-1.2h.1a4.6,4.6,0,0,0,.7-.7h0a7.8,7.8,0,0,1-.5,3.4Z" fill="#faaf41"/><path d="M8,7.4,8.3,7l.8-.6,1.5-.9h.3l1.6-.7.9-.6.8-.6a1,1,0,0,1,.4-.5l.6-.8h0a18,18,0,0,1-.8,2.1l-.9,1.2a4.6,4.6,0,0,1-1.8,1.3A15.5,15.5,0,0,0,9.5,8L8.3,9,8,9.3H8l-.2-.2-.6-.7A13.5,13.5,0,0,0,4.6,7l-.9-.5a2.1,2.1,0,0,1-.8-.6L1.7,4.4A8.5,8.5,0,0,1,.8,2.2h0a.3.3,0,0,1,.1.2l1,1.1a10.1,10.1,0,0,0,2,1.4l1.3.5.4.2,1.3.8.9.8Z" fill="#faaf41"/><path d="M13.1,4l-.2.2-.7.3-.8.3-1.2.6h-.1a3.5,3.5,0,0,0-1.4-.6H7.9a3.5,3.5,0,0,0-2,.7H5.8L4.5,4.8l-.6-.2L3,4.2c0-.1,0-.1-.1-.1h0A7.9,7.9,0,0,1,8,2.2,7.9,7.9,0,0,1,13.1,4Z" fill="#faaf41"/><path d="M9.8,5.5,8,7,6.2,5.5A3.4,3.4,0,0,1,7.6,5,3.4,3.4,0,0,1,9.8,5.5Z" fill="#faaf41"/><path d="M8.5,9l.4-.3.9.3h.8a1.1,1.1,0,0,0,1-.7,1.1,1.1,0,0,0,.3-.8,2,2,0,0,0,.1-.7h0l.4-.3h.1v.2c-.1.4-.1.8-.2,1.1a3.1,3.1,0,0,1-.5,1,2.1,2.1,0,0,1-1,.6,3.4,3.4,0,0,1-1.7-.3Z" fill="#faaf41"/><path d="M7.5,9l-1.4.4H5a1.8,1.8,0,0,1-1.1-1c-.2-.2-.2-.5-.3-.9a2.5,2.5,0,0,0-.1-.8h0l.3.2H4a.1.1,0,0,1,0,.2,5,5,0,0,0,.3,1.3,1.3,1.3,0,0,0,1,.7h.8l1-.4h.1Z" fill="#faaf41"/><path d="M6.9,8.5l-.7.2H5.6A1.1,1.1,0,0,1,4.4,8c0-.2-.1-.6-.1-.9h.1l.5.2h0a.9.9,0,0,0,.1.5.8.8,0,0,0,.7.5l.8-.2h.1Z" fill="#faaf41"/><path d="M9.1,8.5l.4-.3h0l.6.2a1.1,1.1,0,0,0,.7-.2l.3-.5V7.4h0l.5-.2h.1v.2a1.9,1.9,0,0,1-.2.8,1,1,0,0,1-.8.7H10l-.8-.3Z" fill="#faaf41"/><path d="M7,9.6l.5.3.5.3H8l1-.6H9l-.5.7-.5.7H8A6.5,6.5,0,0,1,7,9.6Z" fill="#faaf41"/></svg>