<svg id="Layer_1" data-name="Layer 1" xmlns="http://www.w3.org/2000/svg" width="64" height="64" viewBox="0 0 64 64"><title>logo-64</title><path d="M56.9,37.9l-2.2.4-.9.3-.2.2A5.1,5.1,0,0,1,58.3,40a21.7,21.7,0,0,0-5.7.6,5.7,5.7,0,0,1,1.2,1.8,17.2,17.2,0,0,1,.7,2.1l-1.7-.7L51,43.2c-.2,0-.3,0-.4.2s-2.2,2.6-3.4,3.9A45.2,45.2,0,0,1,40,53.2,57.3,57.3,0,0,1,33.8,57l-1.4.7h-.6A60.2,60.2,0,0,1,25.3,54a47.6,47.6,0,0,1-9.1-7.7c-.9-.9-1.7-1.9-2.6-2.9s-.2-.2-.4-.2A30.3,30.3,0,0,0,10,44.4H9.7a17.2,17.2,0,0,1,.7-2.1,5.7,5.7,0,0,1,1.2-1.8A20.9,20.9,0,0,0,6,40a4.5,4.5,0,0,1,2.1-1.2,5.2,5.2,0,0,1,2.5.1h0a.2.2,0,0,0-.2-.2L8.2,38H7.3a5,5,0,0,1,2.2-1.3A30.9,30.9,0,0,1,7.1,22.5a3.4,3.4,0,0,1,.6.6c.9.8,1.7,1.7,2.6,2.6s.2.3.2.5a17.1,17.1,0,0,0,1.1,6.3,13.3,13.3,0,0,0,4.6,6.1,14.4,14.4,0,0,0,5.5,2.5,9.2,9.2,0,0,0,3.7.1l1.2-.2h.3c1.2,1.7,2.5,3.3,3.7,4.9l1.5,1.5.4-.3L35,44.3,37.5,41a9.2,9.2,0,0,0,2.9.3,12.1,12.1,0,0,0,5.9-1.6,11.9,11.9,0,0,0,3.1-2.3,12.9,12.9,0,0,0,3.7-6.5,18.2,18.2,0,0,0,.6-4.6.9.9,0,0,1,.3-.7,27.6,27.6,0,0,0,2.9-3,.1.1,0,0,0,.1-.1,29.6,29.6,0,0,1-2.3,14.1A5,5,0,0,1,56.9,37.9Z" fill="#faaf41"/><path d="M32.1,29.5,33.5,28a17.5,17.5,0,0,1,3.3-2.8l6.1-3.7a5.2,5.2,0,0,1,1.3-.6A44.8,44.8,0,0,0,51,18a20.6,20.6,0,0,0,3.7-2.3c1.1-.9,2.2-1.8,3.2-2.8s1.3-1.3,1.9-1.9,1.8-2.3,2.6-3.5h.1v.2a34.1,34.1,0,0,1-3.6,8.6,29.8,29.8,0,0,1-3.5,5,22.1,22.1,0,0,1-7.8,5.8A61.2,61.2,0,0,0,38.4,32a31.7,31.7,0,0,0-4.9,4l-1.2,1.6-.2.2-.6-.8a26.5,26.5,0,0,0-2.9-2.9,44.7,44.7,0,0,0-10.7-6.4,21.5,21.5,0,0,1-3.7-1.9,26.2,26.2,0,0,1-3.4-2.4,30.1,30.1,0,0,1-5-6.3A42,42,0,0,1,1.7,7.6h0l.6.8a30.1,30.1,0,0,0,4,4.7A30.4,30.4,0,0,0,15,18.9l5.5,2.2,1.6.8,5.4,3.4a17,17,0,0,1,3.8,3.3Z" fill="#faaf41"/><path d="M53.6,14l-.8.7a14.8,14.8,0,0,1-3.1,1.5c-1,.4-2.1.7-3.1,1.2l-5.1,2.4c-.1,0-.3.1-.4-.1a19.6,19.6,0,0,0-6-2.5,21.7,21.7,0,0,0-3.6-.2,15.6,15.6,0,0,0-8.4,2.8h-.4l-5.3-2.5a19.9,19.9,0,0,0-2.6-.9,16.6,16.6,0,0,1-3.5-1.8l-.4-.3-.2-.3A33.5,33.5,0,0,1,32.1,6.2C40.2,6.2,47.2,9,53.6,14Z" fill="#faaf41"/></svg>