<svg id="Layer_1" data-name="Layer 1" xmlns="http://www.w3.org/2000/svg" width="32" height="32" viewBox="0 0 32 32"><title>logo-32</title><path d="M28,18.9l-1,.2h-.5a.1.1,0,0,1-.1.1,2.4,2.4,0,0,1,2.3.6,9.2,9.2,0,0,0-2.8.3,2.2,2.2,0,0,1,.7.9l.3,1-.9-.4-.8-.2c-.1-.1-.2-.1-.2,0a15.4,15.4,0,0,1-1.7,1.9,16.4,16.4,0,0,1-3.5,2.9,22,22,0,0,1-3,1.9l-.7.3h-.2a20.2,20.2,0,0,1-3.2-1.8A26.1,26.1,0,0,1,8.3,23L7,21.5c0-.1-.1-.1-.2,0L5.3,22H5.1a3,3,0,0,1,.4-1,1.5,1.5,0,0,1,.6-.9,8.9,8.9,0,0,0-2.8-.3,2.4,2.4,0,0,1,1.1-.6,2.4,2.4,0,0,1,1.2,0H5.4l-1-.3H3.9L5,18.2a14.2,14.2,0,0,1-1.1-6.8l.2.3,1.3,1.2a.4.4,0,0,1,.1.3,10.5,10.5,0,0,0,.5,3,6.9,6.9,0,0,0,4.9,4.2,5.5,5.5,0,0,0,1.8.1h.8l1.8,2.4.7.8c.1-.1.1-.2.2-.2L17.4,22l1.2-1.6H20a5.7,5.7,0,0,0,2.9-.8,5.8,5.8,0,0,0,1.5-1.1,6.5,6.5,0,0,0,1.8-3.1,9.1,9.1,0,0,0,.3-2.3.4.4,0,0,1,.1-.3l1.5-1.5h0A14.4,14.4,0,0,1,27,18.2,2.3,2.3,0,0,1,28,18.9Z" fill="#faaf41"/><path d="M16,14.8a4.6,4.6,0,0,1,.7-.7,7,7,0,0,1,1.6-1.4l2.9-1.8.7-.3a23.3,23.3,0,0,0,3.3-1.4L27,8.1l1.5-1.4.9-.9a10.9,10.9,0,0,0,1.3-1.7h0A19.4,19.4,0,0,1,29,8.4a14.6,14.6,0,0,1-1.7,2.4,10.4,10.4,0,0,1-3.8,2.8A30.9,30.9,0,0,0,19.1,16a11.6,11.6,0,0,0-2.4,2l-.6.7a.1.1,0,0,1-.1.1l-.3-.4A18.5,18.5,0,0,0,14.3,17a23.1,23.1,0,0,0-5.2-3.1L7.3,13a6.1,6.1,0,0,1-1.6-1.2,14.2,14.2,0,0,1-2.5-3,24.6,24.6,0,0,1-2-4.7h.1a.8.8,0,0,0,.2.4,22,22,0,0,0,2,2.3A15.7,15.7,0,0,0,7.7,9.7l2.6,1,.8.4,2.7,1.6a7.3,7.3,0,0,1,1.8,1.7C15.7,14.5,15.9,14.6,16,14.8Z" fill="#faaf41"/><path d="M26.4,7.3l-.3.3-1.5.7L23,8.9l-2.4,1.2h-.2a9.9,9.9,0,0,0-3-1.2H15.7a7.8,7.8,0,0,0-4.1,1.4h-.1L8.9,8.9,7.6,8.4,5.9,7.6l-.2-.2V7.2A16.5,16.5,0,0,1,16,3.5,16.1,16.1,0,0,1,26.4,7.3Z" fill="#faaf41"/></svg>