<svg id="Layer_1" data-name="Layer 1" xmlns="http://www.w3.org/2000/svg" width="16" height="16" viewBox="0 0 16 16"><title>logo-16</title><path d="M14,9.4h-.8a1.4,1.4,0,0,1,1.1.3l-1.4.2c.2.1.3.2.3.4s.2.3.2.5H13l-.4-.2h-.1l-.9,1L9.9,13.1a6,6,0,0,1-1.5.9l-.3.2H7.9l-1.5-.9a9.6,9.6,0,0,1-2.2-1.8l-.7-.8H3.4l-.7.3H2.6l.2-.5c0-.2.1-.3.3-.4L1.7,9.9l.5-.3H2l.6-.3A6.6,6.6,0,0,1,2,5.7h.1l.7.7h0a4,4,0,0,0,.3,1.5A3.3,3.3,0,0,0,4.2,9.6a3.1,3.1,0,0,0,1.3.6,1.4,1.4,0,0,0,.9,0h.3l.9,1.2.4.3h.1l.6-.7.6-.8H10l1.4-.4.8-.6a4.2,4.2,0,0,0,.9-1.6,3.7,3.7,0,0,0,.1-1.1h.1l.7-.8h0a6.6,6.6,0,0,1-.6,3.4Z" fill="#faaf41"/><path d="M8,7.4,8.3,7c.3-.2.5-.5.8-.6l1.5-.9.3-.2,1.7-.7.8-.5.8-.7c.2-.1.3-.3.5-.5l.6-.8h0a6.7,6.7,0,0,1-.9,2.1,3.6,3.6,0,0,1-.8,1.2,5.2,5.2,0,0,1-1.9,1.4A15.5,15.5,0,0,0,9.5,8L8.3,9,8,9.4H8l-.2-.2-.6-.7A13.5,13.5,0,0,0,4.6,7l-.9-.5-.8-.6A4.4,4.4,0,0,1,1.7,4.4a6.7,6.7,0,0,1-1-2.3h0c0,.1.1.1.1.2a5.2,5.2,0,0,0,1,1.1A8,8,0,0,0,3.9,4.9l1.3.5.4.2,1.3.8.9.8Z" fill="#faaf41"/><path d="M13.2,3.7H13a2,2,0,0,1-.8.4l-.7.3L10.3,5h-.1a4.7,4.7,0,0,0-1.5-.6H7.9A3.7,3.7,0,0,0,5.8,5H5.7a3.4,3.4,0,0,0-1.2-.6l-.7-.3A2,2,0,0,1,3,3.8H2.8A8.5,8.5,0,0,1,8,1.8,8.5,8.5,0,0,1,13.2,3.7Z" fill="#faaf41"/></svg>