<svg id="Layer_1" data-name="Layer 1" xmlns="http://www.w3.org/2000/svg" width="32" height="32" viewBox="0 0 32 32"><title>logo-32</title><path d="M28.1,18.3l-1,.2h-.6a2.7,2.7,0,0,1,2.3.6l-2.8.3a2.4,2.4,0,0,1,.6.9,4.2,4.2,0,0,1,.4,1l-.9-.3-.8-.3c-.1,0-.2,0-.2.1l-1.7,1.9a31.7,31.7,0,0,1-3.5,2.9,19.2,19.2,0,0,1-3.1,1.8l-.7.4h-.2l-3.2-1.8a23.8,23.8,0,0,1-4.5-3.8L7,21H6.7a4.7,4.7,0,0,0-1.5.6H5a4.2,4.2,0,0,1,.4-1,1.8,1.8,0,0,1,.6-.9,13.3,13.3,0,0,0-2.8-.3,2.4,2.4,0,0,1,1.1-.6H5.4l-1.1-.2H3.8l1.1-.7a14.8,14.8,0,0,1-1.1-6.9L4,11l1.3,1.3v.2A8.1,8.1,0,0,0,6,15.6a6.5,6.5,0,0,0,2.2,3,6.8,6.8,0,0,0,2.7,1.3,5.4,5.4,0,0,0,1.8,0h.7l1.9,2.3.7.8.2-.2,1.2-1.4,1.2-1.6,1.5.2a6,6,0,0,0,2.9-.8A7.9,7.9,0,0,0,24.5,18a6.5,6.5,0,0,0,1.8-3.1,9.1,9.1,0,0,0,.3-2.3c0-.2,0-.3.1-.3l1.5-1.5h0a14.8,14.8,0,0,1-1.1,6.9Z" fill="#faaf41"/><path d="M16,14.8l.7-.8,1.6-1.3,3-1.9.6-.2,3.4-1.4L27.1,8l1.5-1.3,1-1L30.8,4h.1a26.5,26.5,0,0,1-1.8,4.2,22,22,0,0,1-1.7,2.5,10.8,10.8,0,0,1-3.9,2.8A37.5,37.5,0,0,0,19.1,16a11.6,11.6,0,0,0-2.4,2l-.6.7c0,.1-.1.1-.1.2l-.3-.5A18.5,18.5,0,0,0,14.3,17,21.7,21.7,0,0,0,9,13.9L7.2,13,5.6,11.8A14.8,14.8,0,0,1,3.1,8.7,19.6,19.6,0,0,1,1.1,4h0l.3.4a14.3,14.3,0,0,0,2,2.3A13.7,13.7,0,0,0,7.6,9.6l2.7,1,.8.5,2.7,1.6a9.3,9.3,0,0,1,1.8,1.6Z" fill="#faaf41"/><path d="M26.5,7.8l-.3.3a4.8,4.8,0,0,1-1.6.8l-1.5.5-2.5,1.2h-.2a8.1,8.1,0,0,0-2.9-1.2H15.7a7.4,7.4,0,0,0-4.1,1.3h-.2L8.8,9.4,7.5,9a9.1,9.1,0,0,1-1.7-.9l-.2-.2H5.5A16.7,16.7,0,0,1,16,4,16.7,16.7,0,0,1,26.5,7.8Z" fill="#faaf41"/><path d="M19.8,10.9A23.3,23.3,0,0,0,16,14a27.6,27.6,0,0,0-3.7-3.1,6.9,6.9,0,0,1,2.8-1.1A6.6,6.6,0,0,1,19.8,10.9Z" fill="#faaf41"/><path d="M17.1,18.1l.7-.7a6.7,6.7,0,0,0,1.8.7,3.7,3.7,0,0,0,1.8.2,2.8,2.8,0,0,0,2.1-1.4,6.4,6.4,0,0,0,.6-1.8,5.7,5.7,0,0,1,.1-1.3h0l.9-.5h.1v.3a20,20,0,0,1-.4,2.4,5.4,5.4,0,0,1-1,2A3.6,3.6,0,0,1,21.7,19a6.5,6.5,0,0,1-3.4-.4Z" fill="#faaf41"/><path d="M14.9,18a7.1,7.1,0,0,1-2.8.9,4.5,4.5,0,0,1-2.3,0,3.8,3.8,0,0,1-2.3-2A6.1,6.1,0,0,1,7,15.1c-.1-.6-.1-1.2-.2-1.8v-.2l.6.4c.2.1.4.1.4.3s0,.3,0,.4a7.1,7.1,0,0,0,.6,2.5,3.2,3.2,0,0,0,2,1.6,4.2,4.2,0,0,0,1.6-.1,6.5,6.5,0,0,0,2.1-.7c.1-.1.1-.1.2,0Z" fill="#faaf41"/><path d="M13.7,17l-1.4.5-1.3.2A2.3,2.3,0,0,1,8.7,16a4,4,0,0,1-.2-1.9h0l1.1.5c.1.1.1.1.1.2a1.8,1.8,0,0,0,.2,1,1.3,1.3,0,0,0,1.4,1,4,4,0,0,0,1.5-.3H13Z" fill="#faaf41"/><path d="M18.3,17l.7-.5h.2l1,.3a2.1,2.1,0,0,0,1.5-.3,2.4,2.4,0,0,0,.6-1.1v-.6c0-.1.1-.1.1-.2l1.1-.5h0v.5a5.1,5.1,0,0,1-.3,1.7,2.3,2.3,0,0,1-1.6,1.4,3.8,3.8,0,0,1-1.5-.1,4.4,4.4,0,0,1-1.6-.6Z" fill="#faaf41"/><path d="M13.9,19.2l1,.6,1,.7h.2L18,19.3h.1a.4.4,0,0,1-.1.3L17.1,21l-1,1.4H16a15.4,15.4,0,0,1-2.1-3.1Z" fill="#faaf41"/></svg>