<svg id="Layer_1" data-name="Layer 1" xmlns="http://www.w3.org/2000/svg" width="256" height="256" viewBox="0 0 256 256"><title>logo-256</title><path d="M227.4,146.6l-8.9,1.7a15.7,15.7,0,0,0-3.5,1.1c-.3.1-.6.5-.9.9,7-1.2,13.3-.5,18.8,4.7-7.7.2-15.3.5-22.8,2.4a23.8,23.8,0,0,1,5,7.3,41.5,41.5,0,0,1,2.5,8.5c-2.3-1-4.5-2-6.7-2.8l-7.2-2.4a1.2,1.2,0,0,0-1.5.5,157.2,157.2,0,0,1-13.7,15.7,207.1,207.1,0,0,1-28.8,24,235.1,235.1,0,0,1-25.1,15.1l-5.5,2.8a2.4,2.4,0,0,1-2.2,0,227.1,227.1,0,0,1-26.2-15,202.2,202.2,0,0,1-36.6-30.6c-3.6-3.8-6.8-7.9-10.1-11.9a1.6,1.6,0,0,0-1.9-.6,84.8,84.8,0,0,0-12.7,4.8l-.8.4-.4-.2c.9-2.7,1.8-5.6,2.8-8.3a18.7,18.7,0,0,1,5-7.3c-7.6-1.9-15.1-2.2-22.8-2.4a17.3,17.3,0,0,1,8.8-4.7,23.1,23.1,0,0,1,9.8.2l.2-.3c-.4-.3-.7-.8-1.1-.9l-8.6-2a21.8,21.8,0,0,0-3.8-.5,18.3,18.3,0,0,1,9.1-5.3A115.8,115.8,0,0,1,28,84.8c.8.9,1.4,1.7,2.1,2.4L40.7,97.8a2.1,2.1,0,0,1,.8,1.9,65.6,65.6,0,0,0,4.3,25.2,54,54,0,0,0,18.6,24.6,54.9,54.9,0,0,0,21.8,10,41.5,41.5,0,0,0,14.9.6l4.9-.8a1.2,1.2,0,0,1,1,.3l15.2,19.5a82,82,0,0,0,5.7,6.2l1.7-1.4c3.3-3.9,6.7-7.7,9.9-11.7s6.6-8.7,10-13.1a51.5,51.5,0,0,0,11.8,1.4,50.2,50.2,0,0,0,23.6-6.6,58.9,58.9,0,0,0,12.7-9.4,55.8,55.8,0,0,0,14.7-25.7,75,75,0,0,0,2.3-18.8,3.1,3.1,0,0,1,1.2-2.7,94.9,94.9,0,0,0,11.7-12c.1-.1.2-.3.4-.4a114.6,114.6,0,0,1-9.4,56.6A18.5,18.5,0,0,1,227.4,146.6Z" fill="#faaf41"/><path d="M128.1,118.1c1.9-2.1,3.8-4.1,5.6-6.2a58,58,0,0,1,13.1-11.1l24.4-15.1a24.7,24.7,0,0,1,5.3-2.2A193.5,193.5,0,0,0,203.9,72a87.8,87.8,0,0,0,14.7-9.5c4.4-3.5,8.7-7.2,12.9-11,2.6-2.4,5-5.2,7.4-7.9a116.5,116.5,0,0,0,10.6-13.7l.3-.3a3,3,0,0,1-.2,1,161.5,161.5,0,0,1-14.5,34.6,128,128,0,0,1-14.2,20.1,87.4,87.4,0,0,1-31.2,23.2A220.5,220.5,0,0,0,153.2,128a115.8,115.8,0,0,0-19.4,16.2c-1.8,2-3.4,4.2-5.1,6.3l-.7,1c-.9-1.2-1.7-2.4-2.6-3.5A72.9,72.9,0,0,0,114,136.5c-13-10.8-27.7-18.8-43-25.9-5-2.3-10.2-4.3-15-7.3a84.9,84.9,0,0,1-13.2-10,113.1,113.1,0,0,1-20.2-25A152,152,0,0,1,6.2,30.1c0-.1-.1-.2.1-.4L8.6,33A124.2,124.2,0,0,0,24.7,51.7c10.3,9.8,21.6,18.2,34.7,24,7.2,3.1,14.5,5.9,21.9,8.5A38.4,38.4,0,0,1,88,87.6c7.2,4.5,14.5,8.9,21.7,13.5a67.4,67.4,0,0,1,14.9,13.3Z" fill="#faaf41"/><path d="M214.2,60.9c-1.2,1-2.1,1.9-3.1,2.6a58.6,58.6,0,0,1-12.5,6.3c-4.2,1.6-8.5,2.8-12.6,4.6-6.8,3-13.5,6.3-20.2,9.5a1.7,1.7,0,0,1-1.8,0,64.9,64.9,0,0,0-24.1-10.1,76.4,76.4,0,0,0-14.4-.9c-12.3.3-23.4,4.3-33.5,11a1.2,1.2,0,0,1-1.5.1c-7.1-3.4-14.1-6.8-21.2-10-3.4-1.5-7-2.3-10.5-3.7s-9.8-3.9-14.2-7A10.7,10.7,0,0,1,43,61.9l-1-1.1C67.3,41,95.6,29.6,128,29.6S188.6,40.9,214.2,60.9Z" fill="#faaf41"/><path d="M158.7,86.6c-10.8,7.7-21.4,15.3-30.7,25-9.2-9.6-19.8-17.2-30.6-25a56.1,56.1,0,0,1,23.3-9.3C134.5,75.1,146.9,79,158.7,86.6Z" fill="#faaf41"/><path d="M137,144.8c2.1-1.8,3.8-3.5,5.5-5.1a78.5,78.5,0,0,0,15.3,5.7,37.8,37.8,0,0,0,14.2,1.3,22.6,22.6,0,0,0,17.2-11.2,40.2,40.2,0,0,0,4.9-15c.4-3.4.4-6.9.7-10.4a1.2,1.2,0,0,1,.4-.8l7.4-4.5h.4a26.1,26.1,0,0,1,0,2.8,84.1,84.1,0,0,1-2.8,19.3c-1.7,6.2-4.2,12-8.6,16.8a28.2,28.2,0,0,1-16.8,9c-9.7,1.6-18.9-.4-27.9-3.7C143.6,147.8,140.5,146.3,137,144.8Z" fill="#faaf41"/><path d="M118.8,144.7A81.7,81.7,0,0,1,96.4,152a43.1,43.1,0,0,1-18.9-.7c-8.7-2.4-14.8-8-18.8-16a49.1,49.1,0,0,1-4.5-15c-.6-4.7-.9-9.6-1.2-14.4a5.3,5.3,0,0,1-.1-1.3l5,3c1.1.7,2.6,1.1,3.2,2.1s.1,2.4.1,3.7c.4,7.1,1.5,14.1,4.8,20.5s8.8,11.1,16.4,12.5a32.6,32.6,0,0,0,13.2-.4,74.4,74.4,0,0,0,17.2-5.9.9.9,0,0,1,1.1,0Z" fill="#faaf41"/><path d="M109,135.9a51.2,51.2,0,0,1-11.3,4.5,37.2,37.2,0,0,1-10.5,1.7c-9.6,0-16-4.7-18.9-13.9a49.3,49.3,0,0,1-2-15.9l.6.2,8.8,4.3a1,1,0,0,1,.7,1.1,20.5,20.5,0,0,0,1.3,8.5,12.1,12.1,0,0,0,12,8.3,33.3,33.3,0,0,0,12.4-2.7,1.5,1.5,0,0,1,1.7.2Z" fill="#faaf41"/><path d="M147.1,135.9l5.5-3.9a1.9,1.9,0,0,1,1.3,0c3,.8,5.9,1.8,8.9,2.4s8.1.4,11.5-2.2,4.4-5.5,5.1-9.1a45.5,45.5,0,0,0,.4-5.3,1.3,1.3,0,0,1,.4-.9l9.1-4.5h.4v4.5a42.4,42.4,0,0,1-2.6,13.2c-2.5,6.1-6.7,10.1-13.2,11.5a29.8,29.8,0,0,1-12.6-.4,54.6,54.6,0,0,1-13-4.7Z" fill="#faaf41"/><path d="M111,154.4l7.8,5,8.5,5.4a1.4,1.4,0,0,0,1.5,0l15.7-10.1a1.7,1.7,0,0,1,.9-.2,21.4,21.4,0,0,1-1,2.2c-2.5,4-4.9,8-7.5,11.9s-5.6,7.6-8.4,11.4l-.6.6c-6.1-8.4-12.7-16.5-17.3-25.9Z" fill="#faaf41"/></svg>